<mxfile host="app.diagrams.net" modified="2024-04-10T11:20:15.473Z" agent="Mozilla/5.0 (X11; Linux x86_64; rv:124.0) Gecko/20100101 Firefox/124.0" etag="9RGedI5J6EgEhAKbQzDo" version="24.2.3" type="github">
  <diagram name="Page-1" id="AcdBXCT6u5_wgrTS3Z1p">
    <mxGraphModel dx="991" dy="807" grid="1" gridSize="10" guides="1" tooltips="1" connect="1" arrows="1" fold="1" page="1" pageScale="1" pageWidth="850" pageHeight="1100" math="0" shadow="0">
      <root>
        <mxCell id="0" />
        <mxCell id="1" parent="0" />
        <mxCell id="7DHi8QPsg7YdEqFhynla-19" value="" style="whiteSpace=wrap;html=1;aspect=fixed;fillColor=#302316;perimeterSpacing=0;rounded=1;shadow=1;textShadow=1;fontSize=21;labelPosition=center;verticalLabelPosition=middle;align=center;verticalAlign=middle;spacingLeft=-15;spacingTop=-20;spacing=0;fontColor=#FFFFFF;" parent="1" vertex="1">
          <mxGeometry x="80" y="240" width="40" height="40" as="geometry" />
        </mxCell>
        <mxCell id="7DHi8QPsg7YdEqFhynla-25" value="&lt;font&gt;q&lt;/font&gt;" style="whiteSpace=wrap;html=1;aspect=fixed;fillColor=#302316;perimeterSpacing=0;rounded=1;shadow=1;textShadow=1;fontSize=21;labelPosition=center;verticalLabelPosition=middle;align=center;verticalAlign=middle;spacingLeft=-15;spacingTop=-20;spacing=0;fontColor=#FFFFFF;" parent="1" vertex="1">
          <mxGeometry x="120" y="240" width="40" height="40" as="geometry" />
        </mxCell>
        <mxCell id="7DHi8QPsg7YdEqFhynla-26" value="&lt;font&gt;w&lt;/font&gt;" style="whiteSpace=wrap;html=1;aspect=fixed;fillColor=#302316;perimeterSpacing=0;rounded=1;shadow=1;textShadow=1;fontSize=21;labelPosition=center;verticalLabelPosition=middle;align=center;verticalAlign=middle;spacingLeft=-15;spacingTop=-20;spacing=0;fontColor=#FFFFFF;" parent="1" vertex="1">
          <mxGeometry x="160" y="240" width="40" height="40" as="geometry" />
        </mxCell>
        <mxCell id="7DHi8QPsg7YdEqFhynla-27" value="e" style="whiteSpace=wrap;html=1;aspect=fixed;fillColor=#302316;perimeterSpacing=0;rounded=1;shadow=1;textShadow=1;fontSize=21;labelPosition=center;verticalLabelPosition=middle;align=center;verticalAlign=middle;spacingLeft=-15;spacingTop=-20;spacing=0;fontColor=#FFFFFF;" parent="1" vertex="1">
          <mxGeometry x="200" y="240" width="40" height="40" as="geometry" />
        </mxCell>
        <mxCell id="7DHi8QPsg7YdEqFhynla-28" value="&lt;font&gt;r&lt;/font&gt;" style="whiteSpace=wrap;html=1;aspect=fixed;fillColor=#302316;perimeterSpacing=0;rounded=1;shadow=1;textShadow=1;fontSize=21;labelPosition=center;verticalLabelPosition=middle;align=center;verticalAlign=middle;spacingLeft=-15;spacingTop=-20;spacing=0;fontColor=#FFFFFF;" parent="1" vertex="1">
          <mxGeometry x="240" y="240" width="40" height="40" as="geometry" />
        </mxCell>
        <mxCell id="7DHi8QPsg7YdEqFhynla-29" value="&lt;font&gt;t&lt;/font&gt;" style="whiteSpace=wrap;html=1;aspect=fixed;fillColor=#302316;perimeterSpacing=0;rounded=1;shadow=1;textShadow=1;fontSize=21;labelPosition=center;verticalLabelPosition=middle;align=center;verticalAlign=middle;spacingLeft=-15;spacingTop=-20;spacing=0;fontColor=#FFFFFF;" parent="1" vertex="1">
          <mxGeometry x="280" y="240" width="40" height="40" as="geometry" />
        </mxCell>
        <mxCell id="7DHi8QPsg7YdEqFhynla-30" value="Shift" style="whiteSpace=wrap;html=1;aspect=fixed;fillColor=#302316;perimeterSpacing=0;rounded=1;shadow=1;textShadow=1;fontSize=21;labelPosition=center;verticalLabelPosition=middle;align=center;verticalAlign=middle;spacingLeft=-15;spacingTop=-20;spacing=0;fontColor=#FFFFFF;" parent="1" vertex="1">
          <mxGeometry x="80" y="280" width="40" height="40" as="geometry" />
        </mxCell>
        <mxCell id="7DHi8QPsg7YdEqFhynla-31" value="&lt;font&gt;a&lt;/font&gt;" style="whiteSpace=wrap;html=1;aspect=fixed;fillColor=#302316;perimeterSpacing=0;rounded=1;shadow=1;textShadow=1;fontSize=21;labelPosition=center;verticalLabelPosition=middle;align=center;verticalAlign=middle;spacingLeft=-15;spacingTop=-20;spacing=0;fontColor=#FFFFFF;" parent="1" vertex="1">
          <mxGeometry x="120" y="280" width="40" height="40" as="geometry" />
        </mxCell>
        <mxCell id="7DHi8QPsg7YdEqFhynla-32" value="&lt;font&gt;s&lt;/font&gt;" style="whiteSpace=wrap;html=1;aspect=fixed;fillColor=#302316;perimeterSpacing=0;rounded=1;shadow=1;textShadow=1;fontSize=21;labelPosition=center;verticalLabelPosition=middle;align=center;verticalAlign=middle;spacingLeft=-15;spacingTop=-20;spacing=0;fontColor=#FFFFFF;" parent="1" vertex="1">
          <mxGeometry x="160" y="280" width="40" height="40" as="geometry" />
        </mxCell>
        <mxCell id="7DHi8QPsg7YdEqFhynla-33" value="d" style="whiteSpace=wrap;html=1;aspect=fixed;fillColor=#302316;perimeterSpacing=0;rounded=1;shadow=1;textShadow=1;fontSize=21;labelPosition=center;verticalLabelPosition=middle;align=center;verticalAlign=middle;spacingLeft=-15;spacingTop=-20;spacing=0;fontColor=#FFFFFF;" parent="1" vertex="1">
          <mxGeometry x="200" y="280" width="40" height="40" as="geometry" />
        </mxCell>
        <mxCell id="7DHi8QPsg7YdEqFhynla-34" value="f" style="whiteSpace=wrap;html=1;aspect=fixed;fillColor=#302316;perimeterSpacing=0;rounded=1;shadow=1;textShadow=1;fontSize=21;labelPosition=center;verticalLabelPosition=middle;align=center;verticalAlign=middle;spacingLeft=-15;spacingTop=-20;spacing=0;fontColor=#FFFFFF;" parent="1" vertex="1">
          <mxGeometry x="240" y="280" width="40" height="40" as="geometry" />
        </mxCell>
        <mxCell id="7DHi8QPsg7YdEqFhynla-35" value="&lt;font&gt;g&lt;/font&gt;" style="whiteSpace=wrap;html=1;aspect=fixed;fillColor=#302316;perimeterSpacing=0;rounded=1;shadow=1;textShadow=1;fontSize=21;labelPosition=center;verticalLabelPosition=middle;align=center;verticalAlign=middle;spacingLeft=-15;spacingTop=-20;spacing=0;fontColor=#FFFFFF;" parent="1" vertex="1">
          <mxGeometry x="280" y="280" width="40" height="40" as="geometry" />
        </mxCell>
        <mxCell id="7DHi8QPsg7YdEqFhynla-36" value="&lt;font&gt;Ctrl&lt;/font&gt;" style="whiteSpace=wrap;html=1;aspect=fixed;fillColor=#302316;perimeterSpacing=0;rounded=1;shadow=1;textShadow=1;fontSize=21;labelPosition=center;verticalLabelPosition=middle;align=center;verticalAlign=middle;spacingLeft=-15;spacingTop=-20;spacing=0;fontColor=#FFFFFF;" parent="1" vertex="1">
          <mxGeometry x="80" y="320" width="40" height="40" as="geometry" />
        </mxCell>
        <mxCell id="7DHi8QPsg7YdEqFhynla-37" value="&lt;font&gt;z&lt;/font&gt;" style="whiteSpace=wrap;html=1;aspect=fixed;fillColor=#302316;perimeterSpacing=0;rounded=1;shadow=1;textShadow=1;fontSize=21;labelPosition=center;verticalLabelPosition=middle;align=center;verticalAlign=middle;spacingLeft=-15;spacingTop=-20;spacing=0;fontColor=#FFFFFF;" parent="1" vertex="1">
          <mxGeometry x="120" y="320" width="40" height="40" as="geometry" />
        </mxCell>
        <mxCell id="7DHi8QPsg7YdEqFhynla-38" value="&lt;font&gt;x&lt;/font&gt;" style="whiteSpace=wrap;html=1;aspect=fixed;fillColor=#302316;perimeterSpacing=0;rounded=1;shadow=1;textShadow=1;fontSize=21;labelPosition=center;verticalLabelPosition=middle;align=center;verticalAlign=middle;spacingLeft=-15;spacingTop=-20;spacing=0;fontColor=#FFFFFF;" parent="1" vertex="1">
          <mxGeometry x="160" y="320" width="40" height="40" as="geometry" />
        </mxCell>
        <mxCell id="7DHi8QPsg7YdEqFhynla-39" value="&lt;font&gt;x&lt;/font&gt;" style="whiteSpace=wrap;html=1;aspect=fixed;fillColor=#302316;perimeterSpacing=0;rounded=1;shadow=1;textShadow=1;fontSize=21;labelPosition=center;verticalLabelPosition=middle;align=center;verticalAlign=middle;spacingLeft=-15;spacingTop=-20;spacing=0;fontColor=#FFFFFF;" parent="1" vertex="1">
          <mxGeometry x="200" y="320" width="40" height="40" as="geometry" />
        </mxCell>
        <mxCell id="7DHi8QPsg7YdEqFhynla-40" value="c" style="whiteSpace=wrap;html=1;aspect=fixed;fillColor=#302316;perimeterSpacing=0;rounded=1;shadow=1;textShadow=1;fontSize=21;labelPosition=center;verticalLabelPosition=middle;align=center;verticalAlign=middle;spacingLeft=-15;spacingTop=-20;spacing=0;fontColor=#FFFFFF;" parent="1" vertex="1">
          <mxGeometry x="240" y="320" width="40" height="40" as="geometry" />
        </mxCell>
        <mxCell id="7DHi8QPsg7YdEqFhynla-41" value="&lt;font&gt;v&lt;/font&gt;" style="whiteSpace=wrap;html=1;aspect=fixed;fillColor=#302316;perimeterSpacing=0;rounded=1;shadow=1;textShadow=1;fontSize=21;labelPosition=center;verticalLabelPosition=middle;align=center;verticalAlign=middle;spacingLeft=-15;spacingTop=-20;spacing=0;fontColor=#FFFFFF;" parent="1" vertex="1">
          <mxGeometry x="280" y="320" width="40" height="40" as="geometry" />
        </mxCell>
        <mxCell id="7DHi8QPsg7YdEqFhynla-42" value="&lt;font&gt;y&lt;/font&gt;" style="whiteSpace=wrap;html=1;aspect=fixed;fillColor=#302316;perimeterSpacing=0;rounded=1;shadow=1;textShadow=1;fontSize=21;labelPosition=center;verticalLabelPosition=middle;align=center;verticalAlign=middle;spacingLeft=-15;spacingTop=-20;spacing=0;fontColor=#FFFFFF;" parent="1" vertex="1">
          <mxGeometry x="360" y="240" width="40" height="40" as="geometry" />
        </mxCell>
        <mxCell id="7DHi8QPsg7YdEqFhynla-43" value="&lt;font&gt;u&lt;/font&gt;" style="whiteSpace=wrap;html=1;aspect=fixed;fillColor=#302316;perimeterSpacing=0;rounded=1;shadow=1;textShadow=1;fontSize=21;labelPosition=center;verticalLabelPosition=middle;align=center;verticalAlign=middle;spacingLeft=-15;spacingTop=-20;spacing=0;fontColor=#FFFFFF;" parent="1" vertex="1">
          <mxGeometry x="400" y="240" width="40" height="40" as="geometry" />
        </mxCell>
        <mxCell id="7DHi8QPsg7YdEqFhynla-44" value="&lt;font&gt;i&lt;/font&gt;" style="whiteSpace=wrap;html=1;aspect=fixed;fillColor=#302316;perimeterSpacing=0;rounded=1;shadow=1;textShadow=1;fontSize=21;labelPosition=center;verticalLabelPosition=middle;align=center;verticalAlign=middle;spacingLeft=-15;spacingTop=-20;spacing=0;fontColor=#FFFFFF;" parent="1" vertex="1">
          <mxGeometry x="440" y="240" width="40" height="40" as="geometry" />
        </mxCell>
        <mxCell id="7DHi8QPsg7YdEqFhynla-45" value="o" style="whiteSpace=wrap;html=1;aspect=fixed;fillColor=#302316;perimeterSpacing=0;rounded=1;shadow=1;textShadow=1;fontSize=21;labelPosition=center;verticalLabelPosition=middle;align=center;verticalAlign=middle;spacingLeft=-15;spacingTop=-20;spacing=0;fontColor=#FFFFFF;" parent="1" vertex="1">
          <mxGeometry x="480" y="240" width="40" height="40" as="geometry" />
        </mxCell>
        <mxCell id="7DHi8QPsg7YdEqFhynla-46" value="&lt;font&gt;p&lt;/font&gt;" style="whiteSpace=wrap;html=1;aspect=fixed;fillColor=#302316;perimeterSpacing=0;rounded=1;shadow=1;textShadow=1;fontSize=21;labelPosition=center;verticalLabelPosition=middle;align=center;verticalAlign=middle;spacingLeft=-15;spacingTop=-20;spacing=0;fontColor=#FFFFFF;" parent="1" vertex="1">
          <mxGeometry x="520" y="240" width="40" height="40" as="geometry" />
        </mxCell>
        <mxCell id="7DHi8QPsg7YdEqFhynla-47" value="&lt;font style=&quot;font-size: 12px;&quot;&gt;Esc&lt;/font&gt;" style="whiteSpace=wrap;html=1;aspect=fixed;fillColor=#302316;perimeterSpacing=0;rounded=1;shadow=1;textShadow=1;fontSize=21;labelPosition=center;verticalLabelPosition=middle;align=center;verticalAlign=middle;spacingLeft=-15;spacingTop=-20;spacing=0;fontColor=#FFFFFF;" parent="1" vertex="1">
          <mxGeometry x="560" y="240" width="40" height="40" as="geometry" />
        </mxCell>
        <mxCell id="7DHi8QPsg7YdEqFhynla-48" value="&lt;font&gt;h&lt;/font&gt;" style="whiteSpace=wrap;html=1;aspect=fixed;fillColor=#302316;perimeterSpacing=0;rounded=1;shadow=1;textShadow=1;fontSize=21;labelPosition=center;verticalLabelPosition=middle;align=center;verticalAlign=middle;spacingLeft=-15;spacingTop=-20;spacing=0;fontColor=#FFFFFF;" parent="1" vertex="1">
          <mxGeometry x="360" y="280" width="40" height="40" as="geometry" />
        </mxCell>
        <mxCell id="7DHi8QPsg7YdEqFhynla-49" value="&lt;font&gt;j&lt;/font&gt;" style="whiteSpace=wrap;html=1;aspect=fixed;fillColor=#302316;perimeterSpacing=0;rounded=1;shadow=1;textShadow=1;fontSize=21;labelPosition=center;verticalLabelPosition=middle;align=center;verticalAlign=middle;spacingLeft=-15;spacingTop=-20;spacing=0;fontColor=#FFFFFF;" parent="1" vertex="1">
          <mxGeometry x="400" y="280" width="40" height="40" as="geometry" />
        </mxCell>
        <mxCell id="7DHi8QPsg7YdEqFhynla-50" value="&lt;font&gt;k&lt;/font&gt;" style="whiteSpace=wrap;html=1;aspect=fixed;fillColor=#302316;perimeterSpacing=0;rounded=1;shadow=1;textShadow=1;fontSize=21;labelPosition=center;verticalLabelPosition=middle;align=center;verticalAlign=middle;spacingLeft=-15;spacingTop=-20;spacing=0;fontColor=#FFFFFF;" parent="1" vertex="1">
          <mxGeometry x="440" y="280" width="40" height="40" as="geometry" />
        </mxCell>
        <mxCell id="7DHi8QPsg7YdEqFhynla-51" value="&lt;font&gt;l&lt;/font&gt;" style="whiteSpace=wrap;html=1;aspect=fixed;fillColor=#302316;perimeterSpacing=0;rounded=1;shadow=1;textShadow=1;fontSize=21;labelPosition=center;verticalLabelPosition=middle;align=center;verticalAlign=middle;spacingLeft=-15;spacingTop=-20;spacing=0;fontColor=#FFFFFF;" parent="1" vertex="1">
          <mxGeometry x="480" y="280" width="40" height="40" as="geometry" />
        </mxCell>
        <mxCell id="7DHi8QPsg7YdEqFhynla-52" value="&lt;font&gt;ö&lt;/font&gt;" style="whiteSpace=wrap;html=1;aspect=fixed;fillColor=#302316;perimeterSpacing=0;rounded=1;shadow=1;textShadow=1;fontSize=21;labelPosition=center;verticalLabelPosition=middle;align=center;verticalAlign=middle;spacingLeft=-15;spacingTop=-20;spacing=0;fontColor=#FFFFFF;" parent="1" vertex="1">
          <mxGeometry x="520" y="280" width="40" height="40" as="geometry" />
        </mxCell>
        <mxCell id="7DHi8QPsg7YdEqFhynla-53" value="ä" style="whiteSpace=wrap;html=1;aspect=fixed;fillColor=#302316;perimeterSpacing=0;rounded=1;shadow=1;textShadow=1;fontSize=21;labelPosition=center;verticalLabelPosition=middle;align=center;verticalAlign=middle;spacingLeft=-15;spacingTop=-20;spacing=0;fontColor=#FFFFFF;" parent="1" vertex="1">
          <mxGeometry x="560" y="280" width="40" height="40" as="geometry" />
        </mxCell>
        <mxCell id="7DHi8QPsg7YdEqFhynla-54" value="&lt;font&gt;n&lt;/font&gt;" style="whiteSpace=wrap;html=1;aspect=fixed;fillColor=#302316;perimeterSpacing=0;rounded=1;shadow=1;textShadow=1;fontSize=21;labelPosition=center;verticalLabelPosition=middle;align=center;verticalAlign=middle;spacingLeft=-15;spacingTop=-20;spacing=0;fontColor=#FFFFFF;" parent="1" vertex="1">
          <mxGeometry x="360" y="320" width="40" height="40" as="geometry" />
        </mxCell>
        <mxCell id="7DHi8QPsg7YdEqFhynla-55" value="&lt;font&gt;m&lt;/font&gt;" style="whiteSpace=wrap;html=1;aspect=fixed;fillColor=#302316;perimeterSpacing=0;rounded=1;shadow=1;textShadow=1;fontSize=21;labelPosition=center;verticalLabelPosition=middle;align=center;verticalAlign=middle;spacingLeft=-15;spacingTop=-20;spacing=0;fontColor=#FFFFFF;" parent="1" vertex="1">
          <mxGeometry x="400" y="320" width="40" height="40" as="geometry" />
        </mxCell>
        <mxCell id="7DHi8QPsg7YdEqFhynla-56" value="&lt;font&gt;,&lt;/font&gt;" style="whiteSpace=wrap;html=1;aspect=fixed;fillColor=#302316;perimeterSpacing=0;rounded=1;shadow=1;textShadow=1;fontSize=21;labelPosition=center;verticalLabelPosition=middle;align=center;verticalAlign=middle;spacingLeft=-15;spacingTop=-20;spacing=0;fontColor=#FFFFFF;" parent="1" vertex="1">
          <mxGeometry x="440" y="320" width="40" height="40" as="geometry" />
        </mxCell>
        <mxCell id="7DHi8QPsg7YdEqFhynla-57" value="&lt;font&gt;.&lt;/font&gt;" style="whiteSpace=wrap;html=1;aspect=fixed;fillColor=#302316;perimeterSpacing=0;rounded=1;shadow=1;textShadow=1;fontSize=21;labelPosition=center;verticalLabelPosition=middle;align=center;verticalAlign=middle;spacingLeft=-15;spacingTop=-20;spacing=0;fontColor=#FFFFFF;" parent="1" vertex="1">
          <mxGeometry x="480" y="320" width="40" height="40" as="geometry" />
        </mxCell>
        <mxCell id="7DHi8QPsg7YdEqFhynla-58" value="&lt;font&gt;-&lt;/font&gt;" style="whiteSpace=wrap;html=1;aspect=fixed;fillColor=#302316;perimeterSpacing=0;rounded=1;shadow=1;textShadow=1;fontSize=21;labelPosition=center;verticalLabelPosition=middle;align=center;verticalAlign=middle;spacingLeft=-15;spacingTop=-20;spacing=0;fontColor=#FFFFFF;" parent="1" vertex="1">
          <mxGeometry x="520" y="320" width="40" height="40" as="geometry" />
        </mxCell>
        <mxCell id="7DHi8QPsg7YdEqFhynla-59" value="&lt;font&gt;å&lt;/font&gt;" style="whiteSpace=wrap;html=1;aspect=fixed;fillColor=#302316;perimeterSpacing=0;rounded=1;shadow=1;textShadow=1;fontSize=21;labelPosition=center;verticalLabelPosition=middle;align=center;verticalAlign=middle;spacingLeft=-15;spacingTop=-20;spacing=0;fontColor=#FFFFFF;" parent="1" vertex="1">
          <mxGeometry x="560" y="320" width="40" height="40" as="geometry" />
        </mxCell>
        <mxCell id="7DHi8QPsg7YdEqFhynla-61" value="&lt;div&gt;Tab&lt;br&gt;Num layer&lt;br&gt;&lt;/div&gt;" style="rounded=1;whiteSpace=wrap;html=1;fillColor=#302316;fontColor=#FFFFFF;" parent="1" vertex="1">
          <mxGeometry x="160" y="400" width="60" height="40" as="geometry" />
        </mxCell>
        <mxCell id="7DHi8QPsg7YdEqFhynla-62" value="Enter?" style="rounded=1;whiteSpace=wrap;html=1;fillColor=#302316;fontColor=#FFFFFF;" parent="1" vertex="1">
          <mxGeometry x="220" y="400" width="60" height="40" as="geometry" />
        </mxCell>
        <mxCell id="7DHi8QPsg7YdEqFhynla-63" value="Backspace" style="rounded=1;whiteSpace=wrap;html=1;fillColor=#302316;fontColor=#FFFFFF;" parent="1" vertex="1">
          <mxGeometry x="400" y="400" width="60" height="40" as="geometry" />
        </mxCell>
        <mxCell id="7DHi8QPsg7YdEqFhynla-64" value="Esc" style="rounded=1;whiteSpace=wrap;html=1;fillColor=#302316;fontStyle=1;fontColor=#FFFFFF;" parent="1" vertex="1">
          <mxGeometry x="460" y="400" width="60" height="40" as="geometry" />
        </mxCell>
        <mxCell id="7DHi8QPsg7YdEqFhynla-65" value="" style="rounded=1;whiteSpace=wrap;html=1;fillColor=#302316;fontColor=#FFFFFF;" parent="1" vertex="1">
          <mxGeometry x="290" y="400" width="100" height="40" as="geometry" />
        </mxCell>
      </root>
    </mxGraphModel>
  </diagram>
</mxfile>
